<svg xmlns="http://www.w3.org/2000/svg" version="1.1" xmlns:xlink="http://www.w3.org/1999/xlink" width="512" height="512" x="0" y="0" viewBox="0 0 64 64" style="enable-background:new 0 0 512 512" xml:space="preserve" class=""><g><path d="M59.145 15.333c0-1.15-.457-2.253-1.27-3.066L48.06 2.452a4.336 4.336 0 0 0-3.066-1.27H9.977a5.122 5.122 0 0 0-5.122 5.122v51.392a5.122 5.122 0 0 0 5.122 5.122h44.046a5.122 5.122 0 0 0 5.122-5.122zM10.301 6.452h32.427v5.602a5.374 5.374 0 0 0 5.367 5.367h5.604v40.127H10.301z" fill="#000000" opacity="1" data-original="#000000" class=""></path><path d="m47.203 29.575-2.097-.512a13.341 13.341 0 0 0-1.219-3.314l1.265-1.746a1.574 1.574 0 0 0-.075-1.943l-1.163-1.369a1.575 1.575 0 0 0-1.906-.388l-1.931.969a13.371 13.371 0 0 0-5.148-2.38l-.511-2.094a1.574 1.574 0 0 0-1.529-1.201h-1.797c-.726 0-1.357.496-1.529 1.201l-.512 2.097a13.367 13.367 0 0 0-4.916 2.216l-1.91-1.007a1.574 1.574 0 0 0-1.913.349l-1.191 1.345a1.574 1.574 0 0 0-.114 1.941l1.229 1.769a13.338 13.338 0 0 0-1.35 3.56l-2.07.492a1.575 1.575 0 0 0-1.21 1.523l-.01 1.797a1.574 1.574 0 0 0 1.192 1.536l2.098.524a13.349 13.349 0 0 0 1.221 3.32l-1.258 1.716a1.575 1.575 0 0 0 .065 1.944l1.156 1.375c.467.555 1.253.72 1.904.398l1.939-.96a13.377 13.377 0 0 0 5.153 2.383l.493 2.07a1.573 1.573 0 0 0 1.523 1.209l1.797.01a1.574 1.574 0 0 0 1.536-1.193l.524-2.098a13.361 13.361 0 0 0 4.944-2.234l1.877 1.003c.64.342 1.431.202 1.915-.339l1.198-1.339a1.576 1.576 0 0 0 .125-1.941l-1.227-1.787a13.362 13.362 0 0 0 1.338-3.536l2.095-.51a1.575 1.575 0 0 0 1.202-1.529l.001-1.797a1.58 1.58 0 0 0-1.204-1.53zm-15.206 9.86c-4.105 0-7.432-3.327-7.432-7.432s3.327-7.432 7.432-7.432 7.432 3.327 7.432 7.432-3.328 7.432-7.432 7.432z" fill="#000000" opacity="1" data-original="#000000" class=""></path></g></svg>